# xmcd CD database file
#
# Track frame offsets:
#	150
#	12877
#	25461
#	51623
#	64409
#	77155
#	92280
#	105171
#	118129
#	132448
#	144679
#	158185
#	173545
#	187938
#	201890
#	213624
#	228767
#	244171
#	257851
#	271689
#	285496
#	298271
#	312256
#	325281
#
# Disc length: 4525 seconds
#
# Revision: 3
# Processed by: cddbd v1.5.2PL0 Copyright (c) Steve Scherf et al.
# Submitted via: CDex 1.73
#
DISCID=6011ab18
DTITLE=Various Artist - Jazz in the Charts - CD 58/100 (1940) (6)
DYEAR=1940
DGENRE=Jazz
TTITLE0=At a Dixie Roadside Diner - Duke Ellington and His Orchestra
TTITLE1=Number 19 - Earl Hines and His Orchestra
TTITLE2=Blue Rhythm Fantasy I and II - Gene Krupa and His Orchestra
TTITLE3=Huckleberry Duck - Raymond Scott and His New Orchestra
TTITLE4=Only Forever - Tommy Dorsey and His Orchestra
TTITLE5=The Call of the Canyon - Glenn Miller and His Orchestra
TTITLE6=Crosstown - Glenn Miller and His Orchestra
TTITLE7=Fifteen Minute Intermission - Cab Calloway and His Orchestra
TTITLE8=I Could Make You Care - Tommy Dorsey and His Orchestra
TTITLE9=I've Got a Crush on You - Joe Sullivan and His Cafe Society Orchestra
TTITLE10=Pompton Turnpike - Charlie Barnet and His Orchestra
TTITLE11=Maybe - Bobby Byrne and His Orchestra
TTITLE12=I Wouldn't Take a Million - Glenn Miller and His Orchestra
TTITLE13=Dreaming Out Loud - Benny Goodman and His Orchestra
TTITLE14=Our Love Affair - Glenn Miller and His Orchestra
TTITLE15=Stardust - Glenn Miller and His Orchestra
TTITLE16=Sepia Panorama - Duke Ellington and His Orchestra
TTITLE17=Our Love Affair - Glenn Miller and His Orchestra
TTITLE18=We Three (My Echo, My Shadow and Me) - Tommy Dorsey and His Orchestra
TTITLE19=Five O'Clock Whistle - Erskine Hawkins
TTITLE20=Looking for Yesterday - Woody Herman and His Orchestra
TTITLE21=A Million Dreams Ago - Glenn Miller and His Orchestra
TTITLE22=Five O'Clock Whistle - Glenn Miller and His Orchestra
TTITLE23=Falling Leaves - Glenn Miller and His Orchestra
EXTD=YEAR: 1940
EXTT0=
EXTT1=
EXTT2=
EXTT3=
EXTT4=
EXTT5=
EXTT6=
EXTT7=
EXTT8=
EXTT9=
EXTT10=
EXTT11=
EXTT12=
EXTT13=
EXTT14=
EXTT15=
EXTT16=
EXTT17=
EXTT18=
EXTT19=
EXTT20=
EXTT21=
EXTT22=
EXTT23=
PLAYORDER=
